<?xml version="1.0" encoding="UTF-8"?>
<!-- Generator: Adobe Illustrator 19.1.0, SVG Export Plug-In . SVG Version: 6.00 Build 0)  -->
<svg xmlns="http://www.w3.org/2000/svg" xmlns:xlink="http://www.w3.org/1999/xlink" xmlns:dc="http://purl.org/dc/elements/1.1/" xmlns:cc="http://creativecommons.org/ns#" xmlns:rdf="http://www.w3.org/1999/02/22-rdf-syntax-ns#" version="1.1" id="DESIGNS" x="0px" y="0px" width="32px" height="32px" viewBox="0 0 32 32" style="enable-background:new 0 0 32 32;" xml:space="preserve">
<title property="dc:title">to spook</title><desc property="dc:description">An icon for "spook" from the Puchi Puchi series on to [icon]. Downloaded from http://www.toicon.com/icons/puchi-puchi_spook by 162.245.141.223 on 2021-11-24. Licensed CC-BY, see http://toicon.com/license/ for details.</desc>
<path class="puchipuchi_een" d="M16,2C9.925,2,5,6.925,5,13v15c0,1.105,0.895,2,2,2s2-0.895,2-2v-1c0-0.552,0.448-1,1-1s1,0.448,1,1  v1c0,1.105,0.895,2,2,2s2-0.895,2-2v-1c0-0.552,0.448-1,1-1s1,0.448,1,1v1c0,1.105,0.895,2,2,2s2-0.895,2-2v-1c0-0.552,0.448-1,1-1  s1,0.448,1,1v1c0,1.105,0.895,2,2,2s2-0.895,2-2V13C27,6.925,22.075,2,16,2z M13,16c-1.105,0-2-0.895-2-2c0-1.105,0.895-2,2-2  s2,0.895,2,2C15,15.105,14.105,16,13,16z M19,16c-1.105,0-2-0.895-2-2c0-1.105,0.895-2,2-2s2,0.895,2,2C21,15.105,20.105,16,19,16z   M14,14c0,0.552-0.448,1-1,1s-1-0.448-1-1c0-0.552,0.448-1,1-1S14,13.448,14,14z M20,14c0,0.552-0.448,1-1,1s-1-0.448-1-1  c0-0.552,0.448-1,1-1S20,13.448,20,14z" style="fill: #111918;"/>
<metadata><work rdf:about=""><format>image/svg+xml</format><type rdf:resource="http://purl.org/dc/dcmitype/StillImage"/><license rdf:resource="http://creativecommons.org/licenses/by/4.0/"/><attributionname>Shannon E Thomas</attributionname><attributionurl>http://www.toicon.com/icons/puchi-puchi_spook</attributionurl></work></metadata></svg>
